<?xml version="1.0" encoding="UTF-8"?>
<svg id="Layer_1" xmlns="http://www.w3.org/2000/svg" version="1.1" viewBox="0 0 1425.74 257.71">
  <!-- Generator: Adobe Illustrator 29.6.1, SVG Export Plug-In . SVG Version: 2.1.1 Build 9)  -->
  <defs>
    <style>
      .st0 {
        fill-rule: evenodd;
      }

      .st0, .st1 {
        fill: #bca475;
      }
    </style>
  </defs>
  <g>
    <path class="st1" d="M1364.62,104.6c-.83.8-1.66,1.56-2.52,2.31l40.27,60.18-15.31-2.05c-4.95-.66-9.32-3.6-11.8-7.94l-24.03-41.98c-.95.62-1.92,1.21-2.9,1.78l38.54,70.17-15.33-3.09c-5.02-1.01-9.25-4.36-11.4-9.01l-24.04-52.03c-1.05.44-2.12.85-3.19,1.22l25.19,57.1-11.69-2.36c-5.51-1.11-10.03-5.02-11.94-10.31l-14.68-40.8c-1.11.22-2.24.42-3.36.6l16.25,47.75-8.74-1.77c-6-1.21-10.78-5.73-12.35-11.65l-8.36-31.67h0c-1.07.3-2.14.62-3.19.97l9.7,39.49-6.27-1.26c-6.5-1.31-11.52-6.48-12.65-13.02l-3.47-20.07-5.98,13.89c-.67,1.55-.51,3.32.42,4.73l18.45,27.83c.25.38.4.83.44,1.28l.36,5.26,11.62,11.64h27.35s0,11.95,0,11.95l-5.82-5.83h-6.41s6.1,6.11,6.1,6.11l-6.64,6.65v-6.65s-6.11-6.11-6.11-6.11h-5.88s-6.11,6.11-6.11,6.11v5.26s-7.1-7.12-7.1-7.12l6.17-6.01-10.86-10.87-3.91.43c-.62.07-1.24-.08-1.76-.43l-22.82-15.19,16.4,22.18,26.11,35.32h-11.02c-6.25,0-11.92-3.63-14.56-9.3l-9.57-20.62c-.9.42-1.82.82-2.74,1.18l15.37,38.8h-5.3c-7.75,0-14.4-5.55-15.79-13.19l-4.15-22.78c-.9.16-1.81.31-2.73.42l3.47,27.2c.67,5.23-1.27,10.45-5.18,13.98l-4.9,4.42-4.9-4.42c-3.91-3.53-5.84-8.75-5.18-13.98l3.47-27.2c-.92-.11-1.83-.26-2.73-.42l-4.15,22.78c-1.39,7.64-8.04,13.19-15.79,13.19h-5.3s15.37-38.8,15.37-38.8c-.92-.36-1.84-.76-2.74-1.18l-9.57,20.62c-2.63,5.67-8.31,9.3-14.56,9.3h-11.02s26.11-35.32,26.11-35.32l16.4-22.17-22.82,15.18c-.52.34-1.14.49-1.75.43l-3.91-.43-10.86,10.87,6.17,6.01-7.1,7.12v-5.26s-6.11-6.11-6.11-6.11h-5.88s-6.11,6.11-6.11,6.11v6.65s-6.64-6.65-6.64-6.65l6.1-6.11h-6.41s-5.82,5.83-5.82,5.83v-11.95s27.35,0,27.35,0l11.62-11.64.37-5.27c.03-.46.18-.9.44-1.28l18.45-27.83c.93-1.4,1.09-3.18.42-4.73l-5.99-13.9h0s-3.47,20.08-3.47,20.08c-1.13,6.54-6.16,11.72-12.66,13.02l-6.25,1.26,9.7-39.5c-1.05-.35-2.13-.67-3.2-.97l-8.36,31.68c-1.56,5.92-6.36,10.44-12.36,11.65l-8.74,1.76,16.26-47.76c-1.12-.17-2.25-.37-3.36-.59l-14.68,40.81c-1.9,5.29-6.43,9.2-11.94,10.31l-11.69,2.36,25.18-57.12c-1.07-.38-2.13-.79-3.18-1.21l-24.04,52.03c-2.15,4.65-6.38,8-11.4,9.01l-15.33,3.09,38.56-70.17c-.98-.57-1.95-1.16-2.9-1.79l-24.04,41.99c-2.49,4.34-6.85,7.28-11.8,7.94l-15.31,2.05,40.27-60.19c-.86-.75-1.7-1.52-2.53-2.31l-22.67,32.65c-2.79,4.01-7.25,6.54-12.12,6.86l-15.05.99,40.68-50.61c-.71-.9-1.39-1.81-2.06-2.74l-22.57,27.11c-3.05,3.66-7.57,5.78-12.33,5.78h-14.98s72.1-75.24,72.1-75.24c3.88-4.05,9.25-6.34,14.86-6.34h16.08c4.3,0,7.79,3.49,7.79,7.8v9.09c0,7.33,2.45,14.08,6.55,19.5,5.88,7.76,15.18,12.76,25.66,12.76,2.33,0,4.6-.25,6.79-.72,1.75-.38,3.16-1.67,3.63-3.39l5.71-20.7c.08-.37.09-.76.03-1.14-.39-2.51-3.78-4.07-7.59-3.49-3.04.46-5.42,2.16-6.06,4.1,0,0-1.69-3.29-1.73-5.75-.05-3.17,1.31-4.93,4.38-6.47l5.32-2.5c3.35-3.08,8.81-5.08,15-5.08,9.52,0,17.35,4.74,18.36,10.85l.1.75,3.85,29.04c.28,2.07,1.87,3.73,3.94,4.07,1.69.28,3.42.42,5.19.42,10.47,0,19.78-5,25.66-12.76,4.11-5.42,6.55-12.17,6.55-19.5v-9.09c0-4.31,3.49-7.8,7.79-7.8h16.08c5.61,0,10.97,2.29,14.86,6.34l72.1,75.24h-14.97c-4.76,0-9.28-2.12-12.33-5.78l-22.58-27.11c-.66.93-1.34,1.84-2.05,2.74l40.67,50.61-15.06-.99c-4.87-.32-9.33-2.85-12.12-6.86l-22.67-32.64Z"/>
    <polygon class="st1" points="1244.72 29.4 1254.25 22.46 1263.78 29.4 1260.14 18.18 1269.67 11.23 1257.89 11.23 1254.25 0 1250.61 11.23 1238.83 11.23 1248.36 18.18 1244.72 29.4"/>
    <polygon class="st1" points="1292.34 29.68 1298.44 39.78 1299.43 28.01 1310.9 25.3 1300.04 20.74 1301.03 8.97 1293.33 17.91 1282.46 13.35 1288.57 23.45 1280.87 32.39 1292.34 29.68"/>
    <polygon class="st1" points="1209.08 28.03 1209.95 39.8 1216.14 29.76 1227.59 32.58 1219.98 23.57 1226.18 13.53 1215.27 17.99 1207.66 8.97 1208.53 20.75 1197.62 25.21 1209.08 28.03"/>
  </g>
  <g>
    <polygon class="st1" points="757.36 237.09 765.37 226.49 767.91 224.39 767.91 224 761.3 224 761.3 224.39 763.18 226.45 756.3 235.6 749.89 226.45 751.78 224.39 751.78 224 742.6 224 742.6 224.39 745.1 226.49 753.8 238.66 744.8 250.47 742.26 252.58 742.26 252.97 748.91 252.97 748.91 252.58 747.02 250.52 754.86 240.15 762.27 250.52 760.39 252.58 760.39 252.97 769.3 252.97 769.3 252.58 766.76 250.47 757.36 237.09"/>
    <polygon class="st1" points="669.55 224.38 671.44 226.46 671.44 246.7 651.55 224 646.03 224 646.03 224.38 649.38 227.64 649.38 250.5 647.5 252.59 647.5 252.97 653.22 252.97 653.22 252.59 651.33 250.5 651.33 229.83 671.88 252.97 673.39 252.97 673.39 226.46 675.28 224.38 675.28 224 669.55 224 669.55 224.38"/>
    <polygon class="st1" points="736.1 251.32 726.22 251.32 726.22 238.35 735.13 238.35 737.42 240.41 737.79 240.41 737.79 234.69 737.42 234.69 735.13 236.75 726.22 236.75 726.22 225.6 735.23 225.6 738.1 229.26 738.49 229.26 738.49 224 720.29 224 720.29 224.38 722.18 226.46 722.18 250.5 720.29 252.59 720.29 252.97 739.53 252.97 739.53 246.8 739.14 246.8 736.1 251.32"/>
    <path class="st1" d="M632.76,224h-4.56s-8.56,26.53-8.56,26.53l-1.86,2.06v.38h5.63v-.38s-1.88-2.09-1.88-2.09l3.57-11.13.32,1.46h9.22s3.39,9.67,3.39,9.67l-1.88,2.09v.38h7.81v-.38s-1.87-2.08-1.87-2.08l-9.32-26.52ZM625.13,239.23l4.26-13.31,4.67,13.31h-8.93Z"/>
    <path class="st1" d="M862.61,246.23l-4.18-7.06c.89-.48,1.66-1.08,2.28-1.8,2.14-2.46,2.69-5.9,1.39-8.75-1.34-2.94-4.31-4.63-8.14-4.63h-9.84s0,.38,0,.38l1.88,2.09v24.04s-1.88,2.09-1.88,2.09v.38h7.81v-.38s-1.88-2.09-1.88-2.09v-11.6s.77,1.34.77,1.34h3.32c.14,0,.26,0,.45-.02l4.65,8.01c3.16,5.59,6.44,5.3,9.34,4.73v-.39c-1.08-.34-2.85-1.05-5.97-6.33ZM853.93,238.76h-3.87s0-13.25,0-13.25h2.7c4.42,0,6.14,3.52,6.14,6.66,0,3.19-1.74,6.58-4.97,6.58Z"/>
    <path class="st1" d="M702.1,227.65c-2.9-2.35-6.98-3.65-11.51-3.65h-10.67v.38s1.88,2.09,1.88,2.09v24.04s-1.88,2.09-1.88,2.09v.38s11.8,0,11.8,0c8.94,0,15.18-6.05,15.18-14.7,0-4.39-1.66-8.06-4.8-10.62ZM699.41,247.9c-1.93,2.3-4.62,3.51-7.77,3.51s-4.99-.62-5.79-1.01v-24.84s4.66,0,4.66,0c7.02,0,11.92,5.24,11.92,12.75,0,3.93-1.04,7.24-3.02,9.59Z"/>
    <path class="st1" d="M968.72,236.11c-3.33-2.32-5.53-3.85-5.53-6.98,0-2.4,1.77-4.01,4.4-4.01,1.27,0,3.55.3,5.57,3.52h.35v-4.23c-.4-.15-2.3-.9-5.65-.9-4.97,0-8.18,2.7-8.18,6.87,0,3.76,2.37,6.08,6.74,9.03,3.69,2.43,5.44,4.15,5.44,7.33,0,2.88-2.14,4.96-5.09,4.96-3.87,0-6.19-2.62-7.51-7.44h-.45v7.06c1.33.84,3.96,2.07,7.95,2.07,5.26,0,8.79-3.23,8.79-8.05,0-4.29-3.16-6.59-6.82-9.25Z"/>
    <path class="st1" d="M780.65,240.11v.55c6.86.09,11.79-2.79,11.79-8.57,0-4.99-3.87-8.09-10.09-8.09h-9.45v.38s1.88,2.09,1.88,2.09v24.04s-1.88,2.09-1.88,2.09v.38h7.81v-.38s-1.88-2.09-1.88-2.09v-24.99s0,0,0,0h1.96c4.71,0,7.53,2.65,7.53,7.09,0,1.47-.33,6.41-7.66,7.5Z"/>
    <polygon class="st1" points="951.93 251.32 942.05 251.32 942.05 238.35 950.97 238.35 953.25 240.41 953.63 240.41 953.63 234.69 953.25 234.69 950.97 236.75 942.05 236.75 942.05 225.6 951.06 225.6 953.93 229.26 954.32 229.26 954.32 224 936.13 224 936.13 224.38 938.01 226.46 938.01 250.5 936.13 252.59 936.13 252.97 955.37 252.97 955.37 246.8 954.97 246.8 951.93 251.32"/>
    <path class="st1" d="M805.82,224h-4.56s-8.56,26.53-8.56,26.53l-1.86,2.06v.38h5.63v-.38s-1.88-2.09-1.88-2.09l3.57-11.13.32,1.46h9.22s3.39,9.67,3.39,9.67l-1.88,2.09v.38h7.81v-.38s-1.87-2.08-1.87-2.08l-9.32-26.52ZM798.2,239.23l4.26-13.31,4.67,13.31h-8.93Z"/>
    <path class="st1" d="M897.82,224h-4.56s-8.56,26.53-8.56,26.53l-1.86,2.06v.38h5.63v-.38s-1.88-2.09-1.88-2.09l3.57-11.13.32,1.46h9.22s3.39,9.67,3.39,9.67l-1.88,2.09v.38h7.81v-.38s-1.87-2.08-1.87-2.08l-9.32-26.52ZM890.2,239.23l4.26-13.31,4.67,13.31h-8.93Z"/>
    <polygon class="st1" points="871.33 224.38 873.22 226.46 873.22 250.5 871.33 252.59 871.33 252.97 879.15 252.97 879.15 252.59 877.26 250.5 877.26 226.46 879.15 224.38 879.15 224 871.33 224 871.33 224.38"/>
    <polygon class="st1" points="815.36 229.26 815.75 229.26 818.62 225.6 825.85 225.6 825.85 250.5 823.96 252.59 823.96 252.97 831.77 252.97 831.77 252.59 829.89 250.5 829.89 225.6 837.16 225.6 840.03 229.26 840.42 229.26 840.42 224 815.36 224 815.36 229.26"/>
    <polygon class="st1" points="907.37 229.26 907.75 229.26 910.62 225.6 917.85 225.6 917.85 250.5 915.96 252.59 915.96 252.97 923.78 252.97 923.78 252.59 921.89 250.5 921.89 225.6 929.16 225.6 932.03 229.26 932.42 229.26 932.42 224 907.37 224 907.37 229.26"/>
  </g>
  <g>
    <path class="st1" d="M598.06,236.09c-3.33-2.32-5.52-3.85-5.52-6.97,0-2.39,1.76-4,4.39-4,1.27,0,3.55.3,5.56,3.52h.35v-4.23c-.4-.15-2.3-.89-5.65-.89-4.96,0-8.17,2.69-8.17,6.86,0,3.75,2.36,6.07,6.73,9.02,3.68,2.43,5.44,4.14,5.44,7.31,0,2.87-2.14,4.96-5.09,4.96-3.86,0-6.18-2.62-7.49-7.43h-.45v7.05c1.33.83,3.96,2.07,7.94,2.07,5.25,0,8.77-3.23,8.77-8.03,0-4.28-3.16-6.58-6.81-9.24Z"/>
    <path class="st1" d="M465.74,224h-4.55s-8.55,26.5-8.55,26.5l-1.85,2.06v.38h5.62v-.38s-1.88-2.09-1.88-2.09l3.56-11.11.32,1.46h9.21s3.39,9.66,3.39,9.66l-1.88,2.09v.38h7.8v-.38s-1.87-2.07-1.87-2.07l-9.3-26.48ZM458.13,239.2l4.26-13.29,4.66,13.29h-8.92Z"/>
    <path class="st1" d="M534.83,224h-4.55s-8.55,26.5-8.55,26.5l-1.85,2.06v.38h5.62v-.38s-1.88-2.09-1.88-2.09l3.56-11.11.32,1.46h9.21s3.39,9.66,3.39,9.66l-1.88,2.09v.38h7.8v-.38s-1.87-2.07-1.87-2.07l-9.3-26.48ZM527.22,239.2l4.26-13.29,4.66,13.29h-8.92Z"/>
    <path class="st1" d="M580.91,246.2l-4.17-7.04c.89-.47,1.66-1.08,2.28-1.79,2.14-2.46,2.69-5.89,1.39-8.74-1.34-2.94-4.3-4.62-8.13-4.62h-9.83s0,.38,0,.38l1.88,2.09v24s-1.88,2.09-1.88,2.09v.38h7.8v-.38s-1.88-2.09-1.88-2.09v-11.59s.77,1.33.77,1.33h3.31c.14,0,.26,0,.45-.02l4.64,8c3.16,5.59,6.43,5.29,9.33,4.72v-.39c-1.08-.34-2.84-1.05-5.96-6.32ZM572.23,238.74h-3.87s0-13.23,0-13.23h2.7c4.41,0,6.13,3.51,6.13,6.65s-1.74,6.57-4.96,6.57Z"/>
    <polygon class="st1" points="480.01 224.37 481.89 226.46 481.89 250.46 481.89 250.46 480.01 252.55 480.01 252.55 480.01 252.93 480.01 252.93 487.81 252.93 487.81 252.55 485.93 250.46 485.93 238.33 494.83 238.33 497.11 240.38 497.48 240.38 497.48 234.67 497.11 234.67 494.83 236.73 485.93 236.73 485.93 225.6 494.92 225.6 497.79 229.25 498.18 229.25 498.18 224 480.01 224 480.01 224.37"/>
    <polygon class="st1" points="502.19 224.37 504.07 226.46 504.07 250.46 504.07 250.46 502.19 252.55 502.19 252.55 502.19 252.93 502.19 252.93 509.99 252.93 509.99 252.55 508.1 250.46 508.1 238.33 517 238.33 519.28 240.38 519.66 240.38 519.66 234.67 519.28 234.67 517.01 236.73 508.1 236.73 508.1 225.6 517.1 225.6 519.97 229.25 520.36 229.25 520.36 224 502.19 224 502.19 224.37"/>
    <polygon class="st1" points="549.78 224.37 551.66 226.46 551.66 250.46 549.78 252.55 549.78 252.93 557.58 252.93 557.58 252.55 555.69 250.46 555.69 226.46 557.58 224.37 557.58 224 549.78 224 549.78 224.37"/>
    <path class="st1" d="M107.69,236.09c-3.33-2.32-5.52-3.85-5.52-6.97,0-2.39,1.76-4,4.39-4,1.27,0,3.55.3,5.56,3.52h.35v-4.23c-.4-.15-2.3-.89-5.65-.89-4.96,0-8.17,2.69-8.17,6.86,0,3.75,2.36,6.07,6.73,9.02,3.68,2.43,5.44,4.14,5.44,7.31,0,2.87-2.14,4.96-5.09,4.96-3.86,0-6.18-2.62-7.49-7.43h-.45v7.05c1.33.83,3.96,2.07,7.94,2.07,5.25,0,8.77-3.23,8.77-8.03,0-4.28-3.16-6.58-6.81-9.24Z"/>
    <polygon class="st1" points="76.53 224.37 78.41 226.46 78.41 246.66 58.55 224 53.04 224 53.04 224.37 56.38 227.63 56.38 250.46 54.5 252.55 54.5 252.93 60.22 252.93 60.22 252.55 58.34 250.46 58.34 229.82 78.85 252.93 80.36 252.93 80.36 226.46 82.24 224.37 82.24 224 76.53 224 76.53 224.37"/>
    <polygon class="st1" points="432.67 224.37 434.55 226.46 434.55 246.66 414.69 224 409.18 224 409.18 224.37 412.53 227.63 412.53 250.46 410.64 252.55 410.64 252.93 416.36 252.93 416.36 252.55 414.48 250.46 414.48 229.82 434.99 252.93 436.5 252.93 436.5 226.46 438.39 224.37 438.39 224 432.67 224 432.67 224.37"/>
    <polygon class="st1" points="361.4 251.28 351.54 251.28 351.54 238.33 360.44 238.33 362.72 240.38 363.1 240.38 363.1 234.67 362.72 234.67 360.44 236.73 351.54 236.73 351.54 225.6 360.54 225.6 363.41 229.25 363.79 229.25 363.79 224 345.62 224 345.62 224.37 347.51 226.46 347.51 250.46 345.62 252.55 345.62 252.93 364.84 252.93 364.84 246.76 364.44 246.76 361.4 251.28"/>
    <polygon class="st1" points="184.76 224.37 186.64 226.46 179.69 237.13 172.73 226.46 174.61 224.37 174.61 224 165.66 224 165.66 224.37 168.06 226.47 176.65 239.29 176.65 250.46 174.76 252.55 174.76 252.93 182.56 252.93 182.56 252.55 180.68 250.46 180.67 238.59 188.6 226.49 191.07 224.37 191.07 224 184.76 224 184.76 224.37"/>
    <path class="st1" d="M163.19,246.2l-4.17-7.04c.89-.47,1.66-1.08,2.28-1.79,2.14-2.46,2.69-5.89,1.39-8.74-1.34-2.94-4.3-4.62-8.13-4.62h-9.83s0,.38,0,.38l1.88,2.09v24s-1.88,2.09-1.88,2.09v.38h7.8v-.38s-1.88-2.09-1.88-2.09v-11.59s.77,1.33.77,1.33h3.31c.14,0,.26,0,.45-.02l4.64,8c3.16,5.59,6.43,5.29,9.33,4.72v-.39c-1.08-.34-2.84-1.05-5.96-6.32ZM154.51,238.74h-3.87s0-13.23,0-13.23h2.7c4.41,0,6.13,3.51,6.13,6.65,0,3.19-1.74,6.57-4.96,6.57Z"/>
    <path class="st1" d="M336.91,246.2l-4.17-7.04c.89-.47,1.66-1.08,2.28-1.79,2.14-2.46,2.69-5.89,1.39-8.74-1.34-2.94-4.3-4.62-8.13-4.62h-9.83s0,.38,0,.38l1.88,2.09v24s-1.88,2.09-1.88,2.09v.38h7.8v-.38s-1.88-2.09-1.88-2.09v-11.59s.77,1.33.77,1.33h3.31c.14,0,.26,0,.45-.02l4.64,8c3.16,5.59,6.43,5.29,9.33,4.72v-.39c-1.08-.34-2.84-1.05-5.96-6.32ZM328.24,238.74h-3.87s0-13.23,0-13.23h2.7c4.41,0,6.13,3.51,6.13,6.65s-1.74,6.57-4.96,6.57Z"/>
    <path class="st1" d="M216.37,223.52c-8.05,0-14.38,6.57-14.38,15.29,0,8.32,6.18,14.59,14.38,14.59s14.42-6.68,14.42-15.2-6.2-14.68-14.42-14.68ZM216.37,251.76c-5.74,0-9.91-5.57-9.91-13.25,0-7.73,4.17-13.34,9.91-13.34s9.99,5.61,9.99,13.34c0,7.68-4.2,13.25-9.99,13.25Z"/>
    <path class="st1" d="M301,223.52c-8.05,0-14.38,6.57-14.38,15.29,0,8.32,6.18,14.59,14.38,14.59,8.09,0,14.42-6.68,14.42-15.2,0-8.37-6.2-14.68-14.42-14.68ZM301,251.76c-5.74,0-9.91-5.57-9.91-13.25,0-7.73,4.17-13.34,9.91-13.34s9.99,5.61,9.99,13.34c0,7.68-4.2,13.25-9.99,13.25Z"/>
    <polygon class="st1" points="233.81 224.37 235.69 226.46 235.69 250.46 235.69 250.46 233.81 252.55 233.81 252.55 233.81 252.93 233.81 252.93 241.61 252.93 241.61 252.55 239.72 250.46 239.72 238.33 248.62 238.33 250.9 240.38 251.28 240.38 251.28 234.67 250.9 234.67 248.62 236.73 239.72 236.73 239.72 225.6 248.72 225.6 251.59 229.25 251.97 229.25 251.97 224 233.81 224 233.81 224.37"/>
    <polygon class="st1" points="265.87 224.37 267.75 226.46 267.75 250.46 267.75 250.46 265.87 252.55 265.87 252.55 265.87 252.93 265.87 252.93 273.67 252.93 273.67 252.55 271.79 250.46 271.79 238.33 280.69 238.33 282.97 240.38 283.34 240.38 283.34 234.67 282.97 234.67 280.69 236.73 271.79 236.73 271.79 225.6 280.78 225.6 283.65 229.25 284.04 229.25 284.04 224 265.87 224 265.87 224.37"/>
    <path class="st1" d="M398.54,238.19l2.94,2.09v9.87c-1.61,1-3.73,1.57-5.87,1.57-7.16,0-11.56-6.27-11.56-13.47,0-5.83,3.03-13.08,11.12-13.08,1.86,0,5.63.3,8.65,4.43h.34v-4.8c-2.73-.62-5.29-1.28-8.99-1.28-10.15,0-15.59,7.6-15.59,14.99,0,8.77,6.5,14.9,15.81,14.9,4.58,0,8.2-1.79,10.06-2.39l.06-.02h0s0-10.71,0-10.71l1.88-2.09v-.38h-8.86v.38Z"/>
    <polygon class="st1" points="41.49 224.37 43.37 226.46 43.37 250.46 41.49 252.55 41.49 252.93 49.29 252.93 49.29 252.55 47.4 250.46 47.4 226.46 49.29 224.37 49.29 224 41.49 224 41.49 224.37"/>
    <polygon class="st1" points="86.48 224.37 88.36 226.46 88.36 250.46 86.48 252.55 86.48 252.93 94.28 252.93 94.28 252.55 92.4 250.46 92.4 226.46 94.28 224.37 94.28 224 86.48 224 86.48 224.37"/>
    <polygon class="st1" points="368.91 224.37 370.79 226.46 370.79 250.46 368.91 252.55 368.91 252.93 376.71 252.93 376.71 252.55 374.82 250.46 374.82 226.46 376.71 224.37 376.71 224 368.91 224 368.91 224.37"/>
    <polygon class="st1" points="21.24 245.06 10.15 224.04 10.13 224 5.53 224 5.53 224.37 7.21 227.52 7.21 250.46 5.33 252.55 5.33 252.93 11.05 252.93 11.05 252.55 9.16 250.46 9.16 230.53 19.8 250.41 20.29 250.41 31.02 230.2 31.02 250.46 29.14 252.55 29.14 252.93 36.94 252.93 36.94 252.55 35.05 250.46 35.05 226.46 36.94 224.37 36.94 224 32.27 224 21.24 245.06"/>
    <polygon class="st1" points="116.01 229.25 116.39 229.25 119.26 225.6 126.48 225.6 126.48 250.46 124.59 252.55 124.59 252.93 132.39 252.93 132.39 252.55 130.51 250.46 130.51 225.6 137.77 225.6 140.64 229.25 141.03 229.25 141.03 224 116.01 224 116.01 229.25"/>
  </g>
  <path class="st0" d="M773.02,152.88c1.32-.11,2.74-.28,4.14-.77,3.05-1.06,5.83-2.68,8.56-4.39,1.61-1.01,3.09-2.25,4.51-3.54.74-.67.78-.92.26-1.78-1.87-3.11-4.11-5.9-6.84-8.2-1.83-1.54-3.77-2.92-5.54-4.54-.71-.65-.91-.65-1.44.14-2.39,3.65-6.92,11.22-8.51,16.74-.46,2.93,2.21,5.97,4.86,6.32M766.85,104.6c3.92,3.96,7.82,7.91,12.5,11.07.99-1.47,1.99-2.88,2.92-4.35,6.02-9.49,10.97-19.08,15.46-29.44.32.27.24.58.22.85.98,5.27-3.16,16.75-7.55,25.42-.52,1.03-5.89,10.42-6.47,11.3-.13.2.58.54.98.83,2.29,1.72,4.47,3.61,6.21,5.9,4.91,6.46,5.23,16.01,2.77,23.62-1.01,3.12-2.96,5.16-7.5,8.56-5.99,4.49-14.06,8.46-17.92,6.47-4.01-2.07-5.08-8.63-4.32-15.23.34-8.27,5.22-18.08,8.52-23.78.01-.08-5.98-5.3-10.28-10.56-1-1.22-1.92-2.92-2.83-4.53-1.2-2.13-2.39-4.13-3.72-4.71-1.07-.47-1.96-.49-1.82-1.72.05-.4.86-10.85,1.09-12.26,1.4.83,10.62,5.93,12.02,6.79,1.61,1,3.29,1.9,4.78,3.13,1.79,1.47.68,3.2-1.06,2.9-1.3-.22-2.58-.49-4-.26ZM821.3,223.28c.06.21-.1.24-.23.23-.13,0-.29-.06-.36-.15-.09-.12,0-.26.14-.31.21-.07.35.05.45.23ZM948.3,109.25c-4.63-.38-12.23,1.48-15.58-1.38,0,0,1.87-3.94,4.69-4.63,3.16-.77,8.73,3.55,10.88,6ZM934.71,122.44c-5.99-1.02-9.51-6.35-9.37-12.29.12-5.26,2.26-10.86,6.08-14.93,7.7-8.21,15.8-5.62,23.18,2.29,7.91,8.47,12.48,22.58,11.07,35.16-.55,4.92-2.09,9.29-4.25,13.31-5.67,10.58-58.5,42.44-71.07,44.31-2.51.37-32.95,7.25-46.07,10.29-13.13,3.04-3.99-1.48,14.86-8.61,12.34-4.66,23.33-9.52,33.75-14.38,14.94-6.96,59.9-32.41,70.12-44.74-3.43-12.56-18.26-8.7-28.31-10.42ZM833.97,157.6c-9.68,11.36-48.06,32.94-63.81,34.92-9.61,1.2-42.73,9.68-45.72,8.34-1.24-.56,4.39-3.2,22.13-9.46,28.63-10.09,68.99-27.22,88.36-46.74-.01-.02-.03-.07-.03-.07-.14-.36-.66-1.69-1.32-3.16-.86-1.76-1.73-3.59-2.61-5.47-4.51-9.68-6.87-15.69-9.89-26.14-1.02-3.55-.56-2.83-3.03-5.41l4.54-13.42h.35s.85,1.16.85,1.16c1.25,1.89,13.21,17.37,12.61,19.82-.03,1.35-4.76-1.71-5.92-1.77.87,8.12,8.28,13.49,8.36,25.61.02,3.62-.12,6.86-.64,9.96-.66,3.96-1.93,7.72-4.25,11.82ZM851.3,36.55c-.16.51.19,3.83.74,8.23,1.22,9.8,2.9,27.56,4.9,46.77,3.3,31.62,8.21,65.38-2.27,77.86.04-24.71-2.86-49.47-5.39-74.2-2.51-24.47-4.63-48.91-6.67-73.24-.07-.84-1-1.91-1.51-2.54.37-1.52,3.86-9.8,4.44-10.87,2.81,7.02,14.56,31.03,13.16,33.95-.94,1.96-6.68-5.28-7.39-5.97ZM788.74,67.69c.04.48-.12.92-.35,1.33-1.52,2.69-3.05,5.38-4.58,8.06-.11.2-.23.41-.36.59-.47.65-1.08.87-1.81.61-2.65-1.14-7.22-4.62-10.16-6.44-.9-.56-1.28-.94-1.23-1.54-.05.14-.12.28-.2.41-1.52,2.69-3.05,5.38-4.58,8.06-.11.2-.23.41-.36.59-.47.65-1.08.87-1.82.61-2.65-1.14-7.22-4.62-10.16-6.44-1.41-.88-1.54-1.3-.77-2.84.51-1.04,1.08-2.05,1.64-3.07.9-1.62,1.81-3.24,2.71-4.86.19-.34.38-.68.61-.98.52-.68,1.06-.77,1.81-.29,1.83,1.15,3.61,2.4,5.49,3.47,1.82,1.03,3.55,2.17,5.18,3.49.32.25.55.53.59.94,0,.11,0,.22,0,.32.08-.21.18-.44.31-.71.51-1.04,1.08-2.05,1.64-3.07.9-1.62,1.81-3.24,2.71-4.86.19-.34.38-.68.61-.98.52-.68,1.06-.77,1.81-.29,1.83,1.15,3.61,2.4,5.49,3.47,1.82,1.03,3.55,2.17,5.18,3.49.32.25.55.53.59.94ZM899.07,69.29c.04.48-.12.92-.35,1.33-1.52,2.69-3.05,5.38-4.58,8.06-.11.2-.23.41-.36.59-.47.65-1.08.87-1.82.61-2.65-1.14-7.22-4.62-10.16-6.44-1.41-.88-1.54-1.3-.77-2.84.51-1.04,1.08-2.05,1.64-3.07.9-1.62,1.81-3.24,2.71-4.86.19-.34.38-.68.61-.98.52-.68,1.06-.77,1.81-.29,1.83,1.15,3.61,2.4,5.49,3.47,1.82,1.03,3.55,2.17,5.18,3.49.32.25.55.53.59.94ZM780.68,21.47s-3.83-2.68-5.37-4.25c-1.36-1.39-1.63-3.11-1.63-3.11,0,0,3.43-2.05,5.43-.59,3.59,2.85,1.58,7.96,1.58,7.95ZM782.59,30.74c-1.07-1.2-3.21-3.08-3.21-3.08-7.66,12.92-27.98,25.8-41.68,31.67,0,0-4.88,1.57-4.52.76.41-.92,6.33-3.88,6.33-3.88,13.66-8.1,27.45-17.93,38.46-29.43-3.01-1.9-8.36-5.65-7.31-9.68.32-1.22.83-2.77,1.8-4.23,2.29-3.43,6.16-6.52,9.18-4.84,5,3.04,2.35,10.45.78,14.85,0,0,2.87,1.57,3.4,3.74.46,1.9-2.3,5.85-2.3,5.85,0,0-.59-1.34-.94-1.73ZM975.62,62.4c-8.18,1.69-54.67,23.44-59.8,27.65-.11-.4,1.7-5.14,1.98-5.54,5.38-4.56,54.98-26.88,59.93-26.7-1.57,3.44-1.82,4.14-2.12,4.59ZM937.44,20.47c-9.94,2.05-66.49,28.51-72.74,33.63-.13-.49,2.06-6.25,2.42-6.74,6.54-5.55,66.88-32.7,72.9-32.47-1.91,4.19-2.21,5.03-2.57,5.58ZM838.48,62.76c-7.18,1.48-37.19,15.29-41.7,18.99-.1-.35,1.49-4.51,1.74-4.87,4.72-4.01,37.47-18.32,41.82-18.16-1.38,3.02-1.6,3.63-1.86,4.03ZM895.52,157.6c-9.68,11.36-50.74,32.94-66.49,34.92-9.61,1.2-42.73,9.68-45.72,8.34-1.24-.56,4.39-3.2,22.13-9.46,28.63-10.09,71.66-27.22,91.04-46.74-.01-.02-.03-.07-.03-.07-.14-.36-.66-1.69-1.32-3.16-.86-1.76-1.73-3.59-2.61-5.47-4.51-9.68-6.87-15.69-9.89-26.14-1.02-3.55-.56-2.83-3.03-5.41l4.54-13.42h.35s.85,1.16.85,1.16c1.25,1.89,13.21,17.37,12.61,19.82-.03,1.35-4.76-1.71-5.92-1.77.87,8.12,8.28,13.49,8.36,25.61.02,3.62-.12,6.86-.64,9.96-.66,3.96-1.93,7.72-4.25,11.82ZM681.71,131.16c.03.45-.11.86-.32,1.24-1.42,2.5-2.84,5-4.27,7.51-.11.19-.21.38-.34.55-.44.61-1.01.81-1.69.56-2.46-1.06-6.73-4.3-9.45-6-1.31-.82-1.43-1.21-.72-2.65.48-.97,1.01-1.91,1.53-2.85.83-1.51,1.68-3.02,2.53-4.53.18-.31.35-.63.57-.92.48-.63.98-.72,1.69-.27,1.7,1.08,3.36,2.24,5.11,3.23,1.7.96,3.3,2.02,4.82,3.24.29.24.51.5.55.88ZM533.29,190.21c.03.45-.11.86-.32,1.24-1.42,2.5-2.84,5-4.27,7.51-.11.19-.21.38-.34.55-.44.61-1.01.81-1.69.56-2.46-1.06-6.73-4.3-9.45-6-1.31-.82-1.43-1.21-.72-2.65.48-.97,1.01-1.91,1.53-2.85.83-1.51,1.68-3.02,2.53-4.53.18-.31.35-.63.57-.92.48-.63.98-.72,1.69-.27,1.7,1.07,3.36,2.24,5.11,3.23,1.7.96,3.3,2.02,4.82,3.24.29.24.51.5.55.88ZM478.61,191.1c.03.45-.11.86-.32,1.24-1.42,2.5-2.84,5-4.27,7.51-.11.19-.21.38-.34.55-.44.61-1.01.81-1.69.56-2.46-1.06-6.73-4.3-9.45-6-1.31-.82-1.43-1.21-.72-2.65.48-.97,1.01-1.91,1.53-2.85.83-1.51,1.68-3.02,2.53-4.53.18-.31.35-.63.57-.92.48-.63.98-.72,1.69-.27,1.7,1.07,3.36,2.24,5.11,3.23,1.7.96,3.31,2.02,4.82,3.24.29.24.51.5.55.88ZM496.05,190.13c.03.45-.11.86-.32,1.24-1.42,2.5-2.84,5-4.27,7.51-.11.19-.21.38-.34.55-.44.61-1.01.81-1.69.56-2.46-1.06-6.73-4.3-9.45-6-1.31-.82-1.43-1.21-.72-2.65.48-.97,1.01-1.91,1.53-2.85.83-1.51,1.68-3.02,2.53-4.53.18-.31.35-.63.57-.92.48-.63.98-.72,1.69-.27,1.7,1.08,3.36,2.24,5.11,3.23,1.7.96,3.3,2.02,4.82,3.24.29.24.51.5.55.88ZM334.28,149.65c-1.65-.05-3.86.32-5.04.8-.24.1-.33.4-.13.57.5.43.84,1.02,1.3,1.46,2.52,2.43,6.33,4.72,9.99,4.41,1.22-.1,2.31-.57,3.19-1.43.78-.76.78-.96.13-1.8-.71-.9-1.56-1.63-2.56-2.2-2.18-1.23-4.51-1.85-6.88-1.81ZM285.84,132.05c-2.23-1.5-17.05-4.15-23.39-2.3,2.29,1.36,8.36,7.72,9.49,9.09,5.06-2.42,8.78-4.89,13.9-6.79ZM316.66,143.11l-.08-.29c-5.1-23.04-10.18-96.62-10.21-121.23,0-.85-.64-2.35-1.13-2.99.42-1.53,4.24-9.78,4.86-10.85,3.13,9.7,17.59,43.89,8.39,33.43-2.51-2.85-3.13-4.04-3.94-4.87-.72,3.47,3.41,50.16,4.74,65.16,1.62,18.35,4.25,37.39,5.1,38.2.14-.03.33-.08.59-.16,2.22-.7,4.45-1.37,6.71-1.95,4.29-1.11,8.33-.55,12.03,1.87,2.75,1.81,4.21,4.46,4.67,7.73.99,7.16-2.06,19.57-9.98,21.71-5.32,1.44-10.82-2.57-14.04-6.32-2.46-2.87-4.56-6.31-5.25-8.86-7.35,2.77-12.06,5.68-22.54,9.22-12.89,3.53-19.99.21-28.01-10.36-11.19,5.35-21.05,14.63-35.94,15.5-7.36.43-12.46-4.34-15.35-16.36-2.36-9.83-.91-21.36-4.49-24.86-.29.45-.4.95-.51,1.46-.49,2.38-.75,5.4-1.35,7.76-1.17,4.58-3.92,7.54-8.08,9.92-1.5.86-3,1.69-4.6,2.34-.5.2-.72.55-.66,1.11.45,4.36.12,8.98-.38,13.34-.31,2.78-2.53,10.4-4.43,12.44-9.65,10.4-30.76,23.25-42.28,25.16-9.67,2.12-16.1-2.92-16.1-2.92,0,0-4.69-3.57-6.55-9.6-5.37-17.43,9.93-44.55,4.16-26.89-1.95,6.79-2.18,16.8,2.43,22.55,13.74,17.14,49.53-8.48,59.69-21.3-.85-7-4.43-15.48-9.45-20.66-.74-.76-.93-1.55-.78-2.58.43-2.99.88-5.98,1.67-8.91.11-.4.23-.8.38-1.18.7-1.73,3.7,3.31,4.02,3.78,2.05,3.04,3.13,4.29,4.84,4.41,3.4.23,10.06-3.18,12.4-5.67,1.86-1.98,3.11-4.49,3.58-7.59.3-1.61,1.56-11.8,3.07-12.01,1.82-.25,4.46,7.62,4.95,9.29,1.27,4.36,1.74,8.36,2.28,12.46.46,3.56.97,7.21,2.09,11.25,5.62,20.38,28.69,5.95,39.01-.73-6.25-6.58-16.66-15.42-25.29-8.11.77-3.29,3.26-11.22,4.44-12.24,15.34-11.39,50.94-5.8,63.48,2.53-.95,2.78-4.18,10.1-4.7,11.46-2.98.98-20.2,7.13-21.95,8.76.61.83,1.32,1.68,2.1,2.4,3.29,3.04,11.02,3.54,15.3,2.41,6.7-1.77,14.99-5.25,21.11-8.16ZM125.13,114.72c-.29.45-.4.95-.51,1.46-.49,2.38-.75,5.4-1.35,7.76-1.17,4.58-3.92,7.53-8.08,9.92-1.5.86-3,1.69-4.6,2.34-.5.2-.72.55-.66,1.11.1,1,.1,2.01.3,3.01.2,1.04.19,2.13.27,3.2.4,5.08-.37,10.05-1.47,14.99-.35,1.57-.87,3.08-1.46,4.57-1.14,2.89-5.49,6.86-10.94,10.93-9.51,7.09-22.34,14.45-27.15,16.73-5.54,2.63-11.32,4.65-17.24,6.24-41.77,11.16-58.62-21.8-42.08-56.84.53-1.13,2.94-5.93,4.4-5.76.39.05.47.92.14,1.79-2.7,6.5-4.6,9.43-5.47,17.17-1.95,17.38,7.07,33.5,29.72,33.47,3.63,0,7.25-.5,11.17-1.36,4.59-1.01,9.06-2.44,13.49-3.98,1.68-.58,3.33-1.28,4.95-2.03,12.65-5.82,19.81-10.47,31.09-18.94,2.1-1.58,4-3.37,5.89-5.18.78-.75,1.14-1.54,1.04-2.67-.68-7.14-4.34-17.83-9.53-23.19-.74-.77-.93-1.55-.78-2.58.43-2.99.88-5.98,1.67-8.91.11-.4.23-.8.38-1.18.7-1.73,3.7,3.31,4.02,3.78,2.05,3.04,3.13,4.29,4.84,4.41,3.4.23,10.06-3.18,12.4-5.67,1.86-1.98,3.11-4.49,3.58-7.59.3-1.61,1.56-11.8,3.07-12.01,1.82-.25,4.46,7.62,4.95,9.29,1.27,4.36,1.74,8.35,2.28,12.46.46,3.56.97,7.21,2.09,11.25.56,2.04,1.39,4.02,2.42,5.73,4.12,6.84,13.42,2.96,17.84-2.27.2-1.75-7.77-13.63-8.82-14.73.06-1.53,1.71-10.27,2.23-11.85.23-.08.47,0,.73.27,8.71,9.04,12.05,24.35,7.87,35.79-3.08,8.33-19.24,13.66-25.04,2.8-4.97-10.09-4.45-30.62-7.62-33.71ZM459.7,120.94c-.02.45-.21.84-.47,1.19-1.7,2.32-3.41,4.64-5.12,6.95-.13.17-.25.35-.4.51-.51.55-1.1.69-1.74.36-2.32-1.34-6.17-5.06-8.69-7.06-.67-.53-.99-.89-.99-1.34-.08.17-.17.32-.28.47-1.7,2.32-3.41,4.64-5.12,6.95-.13.17-.25.35-.4.51-.51.55-1.1.69-1.74.36-2.32-1.34-6.17-5.06-8.69-7.06-1.21-.96-1.28-1.37-.4-2.71.59-.9,1.23-1.78,1.85-2.66,1.01-1.4,2.02-2.8,3.04-4.2.21-.29.42-.59.67-.84.56-.57,1.06-.6,1.71-.07,1.57,1.27,3.07,2.62,4.69,3.81,1.57,1.15,3.04,2.4,4.41,3.79.27.27.45.55.45.94v.05c.1-.21.23-.44.41-.71.59-.9,1.23-1.78,1.85-2.66,1.01-1.4,2.02-2.8,3.04-4.2.21-.29.42-.59.67-.84.56-.57,1.06-.59,1.71-.07,1.57,1.27,3.07,2.62,4.69,3.81,1.57,1.15,3.04,2.4,4.4,3.79.27.27.45.55.45.94ZM99.67,189.39c.03.45-.11.86-.32,1.24-1.42,2.5-2.84,5-4.27,7.51-.11.19-.21.38-.34.55-.44.61-1.01.81-1.69.56-2.46-1.06-6.73-4.3-9.45-6-1.31-.82-1.43-1.21-.72-2.65.48-.97,1.01-1.91,1.53-2.85.83-1.51,1.68-3.02,2.53-4.53.18-.31.35-.63.57-.92.48-.63.98-.72,1.69-.27,1.7,1.08,3.36,2.24,5.11,3.23,1.7.96,3.3,2.02,4.82,3.24.29.24.51.5.55.88ZM117.12,188.42c.03.45-.11.86-.32,1.24-1.42,2.5-2.84,5-4.27,7.51-.11.19-.21.38-.34.55-.44.61-1.01.81-1.69.56-2.46-1.06-6.73-4.3-9.45-6-1.31-.82-1.43-1.21-.72-2.65.48-.97,1.01-1.91,1.53-2.85.83-1.51,1.68-3.02,2.53-4.53.18-.31.35-.63.57-.92.48-.63.98-.72,1.69-.27,1.7,1.07,3.36,2.24,5.11,3.23,1.7.96,3.3,2.02,4.82,3.24.29.24.51.5.55.88ZM276.3,95.99c.03.45-.11.86-.32,1.24-1.42,2.5-2.84,5-4.27,7.51-.11.19-.21.38-.34.55-.44.61-1.01.81-1.69.56-2.46-1.06-6.73-4.3-9.45-6-1.31-.82-1.43-1.21-.72-2.65.48-.97,1.01-1.91,1.53-2.85.83-1.51,1.68-3.02,2.53-4.53.18-.31.35-.63.57-.92.48-.63.98-.72,1.69-.27,1.7,1.08,3.36,2.24,5.11,3.23,1.7.96,3.3,2.02,4.82,3.24.29.24.51.5.55.88ZM82.31,148.2c.03.45-.11.86-.32,1.24-1.42,2.5-2.84,5-4.27,7.51-.11.19-.21.38-.34.55-.44.61-1.01.81-1.69.56-2.46-1.06-6.73-4.3-9.45-6-1.31-.82-1.43-1.21-.72-2.65.48-.97,1.01-1.91,1.53-2.85.83-1.51,1.68-3.02,2.53-4.53.18-.31.35-.63.57-.92.48-.63.98-.72,1.69-.27,1.7,1.07,3.36,2.24,5.11,3.23,1.7.96,3.31,2.02,4.82,3.24.29.24.51.5.55.88ZM156.89,170.25c.03.45-.11.86-.32,1.24-1.42,2.5-2.84,5-4.27,7.51-.11.19-.21.38-.34.55-.44.61-1.01.81-1.69.56-2.46-1.06-6.73-4.3-9.45-6-1.31-.82-1.43-1.21-.72-2.65.48-.97,1.01-1.91,1.53-2.85.83-1.51,1.68-3.02,2.53-4.53.18-.31.35-.63.57-.92.48-.63.98-.72,1.69-.27,1.7,1.08,3.36,2.24,5.11,3.23,1.7.96,3.3,2.02,4.82,3.24.29.24.51.5.55.88ZM400.63,109.25c-4.63-.38-12.23,1.48-15.58-1.38,0,0,1.87-3.94,4.69-4.63,3.16-.77,8.73,3.55,10.88,6ZM479.96,108.18c-.78,3.15-2.47,7.13-6.04,7.74-2.38.41-5.13-.52-5.83-3.96-.14-.7-.12-1.44-.12-2.16.01-2.89.21-5.79-.22-8.67-.08-.54,0-1.05.19-1.55.3-.8.65-1.58.95-2.38.11-.28.28-.44.58-.39.29.05.43.31.48.57.4,2.01.38,4.05.4,6.09.02,2.35-.68,6.43,2.41,7.13,1.92.43,4.55-1.17,5.05-2.95.47-1.67.61-3.36.2-5.06-.1-.43-1.15-4.82-1.43-5.49.1-1.27.9-2.87,1.45-4.04.71-1.51,1.64,1.58,2.31,4.52.75,3.29.82,5.91,2.52,8.94,1.26,2.25,4.37,2.63,6.01,2.48.32-.03.63-.19.86-.56-1.15-2.8-2.57-5.17-3.92-7.86-1.47-2.92-1.12-5.7.4-8.45.05-.09.22-.17.33-.16.1,0,.24.13.26.23.32,1.55.86,3.01,1.54,4.45.4.83.81,1.65,1.28,2.44,1.12,1.87,2.19,3.78,2.29,6.02.11,2.43.11,4.85-1.09,7.11-.74,1.39-1.91,1.98-3.34,2.09-2.76.23-4.81-1.02-6.24-3.32-.45-.72-.87-1.96-1.28-2.78ZM681.5,104.07c-5.32,1.49-27.16,13.46-30.36,16.48-.09-.26.88-4.19,1.05-4.47,3.34-3.26,27.21-15.75,30.49-15.86-.88,2.35-1.01,3.53-1.19,3.85ZM582.27,23.64c-17.24,3.55-146.02,63.59-156.85,72.48-.23-.85,3.58-10.83,4.19-11.69,11.34-9.62,146.69-70.85,157.13-70.47-3.32,7.26-3.84,8.72-4.46,9.68ZM456.54,15.18c-9.69,2-84.62,37.43-90.71,42.43-.13-.48,2.01-6.09,2.35-6.57,6.38-5.41,84.99-41.51,90.86-41.3-1.87,4.08-2.16,4.9-2.51,5.44ZM209.02,90.7c.03.45-.11.86-.32,1.24-1.42,2.5-2.84,5-4.27,7.51-.11.19-.21.38-.34.55-.44.61-1.01.81-1.69.56-2.46-1.06-6.73-4.3-9.45-6-1.31-.82-1.43-1.21-.72-2.65.48-.97,1.01-1.91,1.53-2.85.83-1.51,1.68-3.02,2.53-4.53.18-.31.35-.63.57-.92.48-.63.98-.72,1.69-.27,1.7,1.07,3.36,2.24,5.11,3.23,1.7.96,3.3,2.02,4.82,3.24.29.24.51.5.55.88ZM226.46,89.73c.03.45-.11.86-.32,1.24-1.42,2.5-2.84,5-4.27,7.51-.11.19-.21.38-.34.55-.44.61-1.01.81-1.69.56-2.46-1.06-6.73-4.3-9.45-6-1.31-.82-1.43-1.21-.72-2.65.48-.97,1.01-1.91,1.53-2.85.83-1.51,1.68-3.02,2.53-4.53.18-.31.35-.63.57-.92.48-.63.98-.72,1.69-.27,1.7,1.08,3.36,2.24,5.11,3.23,1.7.96,3.3,2.02,4.82,3.24.29.24.51.5.55.88ZM796.4,14.24c-.25,1.13-.24,2.44-.24,2.44.52.27,1.75.62,2.93,1.33,1.19.73,2.33,1.83,2.59,1.92.44-.17.46-.68.59-1.08,1.9,2.93,3.07,6.56,3.75,9.96,0,0,.27,1.94.69,1.78,1.45-.48,2.81-12.52,3.73-14.88,1.22-3.12,3.17-5.28,5.71-.85l1.48-3.71s-.67-1.28-1.91-2.13c-2.94-2-4.6,1.05-5.76,3.51-.86,2.12-2.31,10.23-2.47,12.53,0,0-.71-3.46-1.68-6.21-.89-2.53-2.18-4.77-4.34-6.41-2.39-1.82-4.4-1.35-5.09,1.8ZM911.36,41.32c-.35,1.57-.34,3.4-.34,3.4.72.38,2.44.86,4.09,1.86,1.66,1.01,3.25,2.55,3.61,2.67.62-.24.64-.94.82-1.51,2.65,4.07,4.28,9.13,5.22,13.88,0,0,.38,2.7.96,2.47,2.03-.67,3.92-17.45,5.2-20.72,1.7-4.35,4.42-7.36,7.95-1.18l2.07-5.16s-.93-1.78-2.66-2.96c-4.09-2.79-6.41,1.46-8.02,4.89-1.2,2.95-3.22,14.25-3.44,17.45,0,0-.98-4.82-2.33-8.66-1.24-3.52-3.04-6.64-6.05-8.93-3.33-2.53-6.12-1.87-7.08,2.5ZM300.01,176.08c-.16.12-.24.22-.23.31.05.67,4.39,2.92,5.16,2.68.1-.1.05-.22.01-.33-.2-.64-.41-1.28-.77-1.86-1-1.61-2.67-1.92-4.18-.8ZM308.49,179.83c-.17,1.12-1.03,3.02-1.65,4.04-.16.27-.4.32-.68.33-.65.03-1.8-.33-3.06-.81-2.71-1.03-4.98-2.3-7.13-4.38-.18-.17-.34-.06-.47.08-.69.98-2.03,4.08-3.16,5.5-4.15,5.61-24.24,11.59-30.92,13.55-5.01.74-9.9,1.5-14.94,2.11-.8.1-1.6.18-2.4.26-.11.01-.29.07-.34-.07-.06-.16.05-.3.19-.39,6.32-2.2,12.74-4.04,19-6.21,6.17-2.14,22.85-7.35,27.74-10.88,1.95-1.41,3.23-3.35,4.32-5.45.48-.93,1.01-1.84,1.57-2.73.06-.1.13-.19.22-.27.35-.33.49-.34.82,0,.19.19.31.19.46-.04.45-.67,1.02-1.24,1.66-1.72,1.97-1.48,4.78-2.77,6.52-.03,1.3,2.06,2.24,4.65,2.25,7.1ZM221.12,182.04c-6.22,1.74-31.76,15.74-35.5,19.27-.11-.3,1.03-4.06,1.23-4.39,3.91-3.81,31.82-18.42,35.65-18.54-1.03,2.74-1.18,3.29-1.39,3.66ZM233.73,191.67c.25,1.75-2.38,10.01-4.99,8.98-5.99-2.36.31-16.82,2.33-21.65.84-2.02,1.4-3.65,1.95-4.49.34,1.01-.11,3.38-.75,5.18-1.56,4.4-5.96,12.22-1.59,15.75.81.45,1.05.35,1.49-.76.43-1.08.89-2.12,1.56-3.01ZM235.92,45.26c-11.32,2.33-98.8,43.7-105.91,49.54-.15-.56,2.35-7.11,2.75-7.68,7.45-6.31,99.23-48.47,106.09-48.22-2.18,4.77-2.52,5.72-2.93,6.36ZM244.46,22.17c6.97-2.28,15.62-1.35,22.61.38-2.97,2.54-20.43,11.94-24.4,14.76,5.04-.78,18.08-4.41,20.82-5.72,3.45-2.85,8.04-10.26,10.14-14.29,1.38-2.65,2.12-3.53-1.02-5.03-3.98-1.91-18.57-3.43-22.1-1.6-1.63.84-5.2,9.57-6.05,11.51ZM168.98,19.22c-16.44,3.39-143.5,63.47-153.82,71.95-.22-.81,3.41-10.33,3.99-11.15C29.96,70.85,163.28,9.62,173.24,9.99c-3.16,6.92-3.66,8.31-4.26,9.23ZM85.93,76.44c6.97-2.28,15.62-1.35,22.61.38-2.97,2.54-20.43,11.94-24.4,14.76,5.04-.78,18.08-4.41,20.82-5.72,3.45-2.85,8.04-10.27,10.13-14.29,1.38-2.65,2.12-3.53-1.02-5.03-3.98-1.91-18.57-3.43-22.1-1.6-1.63.84-5.2,9.57-6.05,11.51ZM122.17,47.23c-.32,1.48-.31,3.19-.31,3.19.67.35,2.29.81,3.83,1.74,1.56.95,3.04,2.39,3.38,2.51.58-.22.6-.89.77-1.42,2.48,3.82,4.01,8.56,4.89,13.01,0,0,.35,2.53.9,2.32,1.9-.62,3.67-16.36,4.88-19.43,1.6-4.08,4.14-6.9,7.45-1.1l1.94-4.84s-.87-1.67-2.5-2.78c-3.84-2.62-6.01,1.37-7.52,4.58-1.13,2.77-3.02,13.36-3.22,16.36,0,0-.92-4.52-2.19-8.11-1.16-3.3-2.85-6.23-5.67-8.37-3.12-2.37-5.74-1.76-6.64,2.35ZM171.91,103.51c.25,1.75-2.38,10.01-4.99,8.98-5.99-2.36.31-16.82,2.33-21.65.84-2.02,1.4-3.65,1.95-4.49.34,1.01-.11,3.38-.75,5.18-1.56,4.4-5.96,12.22-1.59,15.75.81.45,1.05.35,1.49-.76.43-1.08.89-2.12,1.56-3.01ZM177.31,48.08c.36,2.48-3.38,14.25-7.11,12.78-8.52-3.36.44-23.94,3.32-30.83,1.2-2.87,2-5.2,2.77-6.39.48,1.44-.16,4.81-1.07,7.38-2.23,6.26-8.49,17.4-2.27,22.42,1.16.65,1.5.5,2.12-1.08.61-1.53,1.26-3.02,2.22-4.28ZM76.15,112.79c.52,3.59-4.89,20.61-10.28,18.49-12.33-4.85.64-34.63,4.81-44.59,1.74-4.16,2.89-7.52,4.01-9.25.7,2.08-.23,6.95-1.55,10.67-3.22,9.05-12.28,25.16-3.28,32.43,1.68.93,2.17.72,3.07-1.56.88-2.22,1.83-4.37,3.22-6.19ZM17.47,112.22c.59,4.06-5.53,23.28-11.61,20.89-13.93-5.48.73-39.12,5.43-50.37,1.96-4.69,3.27-8.5,4.53-10.45.79,2.35-.26,7.86-1.75,12.05-3.64,10.23-13.88,28.43-3.7,36.64,1.89,1.05,2.45.81,3.47-1.77,1-2.51,2.07-4.93,3.63-7ZM21.1,49.76c.25,1.75-2.38,10.01-4.99,8.98-5.99-2.36.31-16.82,2.33-21.65.43-1.04.79-1.98,1.11-2.76-.1-.44-.15-.82-.15-.82-.8-4.01-2.17-8.28-4.41-11.72-.16.48-.17,1.08-.7,1.28-.31-.11-1.64-1.4-3.05-2.26-1.39-.85-2.84-1.25-3.45-1.57,0,0,0-1.55.28-2.88.81-3.7,3.17-4.25,5.98-2.11,2.54,1.93,4.06,4.57,5.11,7.54,1.14,3.24,1.97,7.31,1.97,7.31.18-2.7,1.88-12.24,2.9-14.74,1.36-2.89,3.32-6.48,6.78-4.13,1.46,1,2.25,2.5,2.25,2.5l-1.75,4.36c-2.98-5.22-5.28-2.68-6.72,1-1.08,2.75-2.66,16.76-4.36,17.49-.16.74-.37,1.51-.62,2.2-1.56,4.4-5.96,12.22-1.59,15.75.81.45,1.05.35,1.49-.76.43-1.08.89-2.12,1.56-3.01ZM330.8,96.21c-.25-1.75,2.38-10.01,4.99-8.98,5.99,2.36-.31,16.82-2.33,21.65-.84,2.02-1.4,3.65-1.95,4.49-.34-1.01.11-3.38.75-5.18,1.56-4.4,5.96-12.22,1.59-15.75-.81-.45-1.05-.35-1.49.76-.43,1.08-.89,2.12-1.56,3.01ZM389.55,190.01c.25,1.75-2.38,10.01-4.99,8.98-5.99-2.36.31-16.82,2.33-21.65.84-2.02,1.4-3.65,1.95-4.49.34,1.01-.11,3.38-.75,5.18-1.56,4.4-5.96,12.22-1.59,15.75.81.45,1.05.35,1.49-.76.43-1.08.89-2.12,1.56-3.01ZM297.35,85.8c.25,1.75-2.38,10.01-4.99,8.98-5.99-2.36.31-16.82,2.33-21.65.84-2.02,1.4-3.65,1.95-4.49.34,1.01-.11,3.38-.75,5.18-1.56,4.4-5.96,12.22-1.59,15.75.81.45,1.05.35,1.49-.76.43-1.08.89-2.12,1.56-3.01ZM966.24,188.17c.34,2.37-3.23,13.61-6.79,12.21-8.14-3.2.42-22.86,3.17-29.44,1.15-2.74,1.91-4.97,2.65-6.1.46,1.37-.15,4.59-1.03,7.04-2.13,5.98-8.11,16.61-2.16,21.41,1.11.62,1.43.47,2.03-1.03.58-1.47,1.21-2.88,2.12-4.09ZM175.46,153.43c.25,1.75-2.38,10.01-4.99,8.98-5.99-2.36.31-16.82,2.33-21.65.84-2.02,1.4-3.65,1.95-4.49.34,1.01-.11,3.38-.75,5.18-1.56,4.4-5.96,12.22-1.59,15.75.81.45,1.05.35,1.49-.76.43-1.08.89-2.12,1.56-3.01ZM222.17,66.74c-.32,1.48-.31,3.19-.31,3.19.67.35,2.29.81,3.83,1.74,1.56.95,3.04,2.39,3.38,2.51.58-.22.6-.89.77-1.42,2.48,3.82,4.01,8.56,4.89,13.01,0,0,.35,2.53.9,2.32,1.9-.62,3.67-16.36,4.88-19.43,1.6-4.08,4.14-6.9,7.45-1.1l1.94-4.84s-.87-1.67-2.5-2.78c-3.84-2.62-6.01,1.37-7.52,4.58-1.13,2.77-3.02,13.36-3.22,16.36,0,0-.92-4.52-2.19-8.11-1.16-3.3-2.85-6.23-5.67-8.37-3.12-2.37-5.74-1.76-6.64,2.35ZM835.08,38.71c.44,3.02-4.11,17.31-8.63,15.53-10.36-4.08.54-29.09,4.04-37.46,1.46-3.49,2.43-6.32,3.37-7.77.59,1.75-.2,5.84-1.3,8.96-2.71,7.61-10.32,21.14-2.75,27.25,1.41.78,1.82.6,2.58-1.31.74-1.86,1.54-3.67,2.7-5.2ZM402.28,52.38c-.32,1.48-.31,3.19-.31,3.19.67.35,2.29.81,3.83,1.74,1.56.95,3.04,2.39,3.38,2.51.58-.22.6-.89.77-1.42,2.48,3.82,4.01,8.56,4.89,13.01,0,0,.35,2.53.9,2.32,1.9-.62,3.67-16.36,4.88-19.43,1.6-4.08,4.14-6.9,7.45-1.1l1.94-4.84s-.87-1.67-2.5-2.78c-3.84-2.62-6.01,1.37-7.52,4.58-1.13,2.77-3.02,13.36-3.22,16.36,0,0-.92-4.52-2.19-8.11-1.16-3.3-2.85-6.23-5.67-8.37-3.12-2.37-5.74-1.76-6.64,2.35ZM541.53,92.3c.52,3.59-4.89,20.61-10.28,18.49-12.33-4.85.64-34.63,4.81-44.59,1.74-4.16,2.89-7.52,4.01-9.25.7,2.08-.23,6.95-1.55,10.67-3.22,9.05-12.28,25.16-3.28,32.43,1.68.93,2.17.72,3.07-1.56.88-2.22,1.83-4.37,3.22-6.19ZM606.28,78.51c.52,3.59-4.89,20.61-10.28,18.49-12.33-4.85.64-34.63,4.81-44.59,1.74-4.16,2.89-7.52,4.01-9.25.7,2.08-.23,6.95-1.55,10.67-3.22,9.05-12.28,25.16-3.28,32.43,1.68.93,2.17.72,3.07-1.56.88-2.22,1.83-4.37,3.22-6.19ZM651.26,13.65c-.3,1.35-.29,2.93-.29,2.93.62.32,2.1.74,3.51,1.6,1.43.87,2.79,2.19,3.1,2.3.53-.2.55-.81.71-1.3,2.28,3.5,3.68,7.85,4.49,11.93,0,0,.32,2.32.83,2.13,1.74-.57,3.37-15,4.47-17.82,1.46-3.74,3.8-6.33,6.84-1.01l1.78-4.44s-.8-1.53-2.29-2.55c-3.52-2.4-5.51,1.26-6.9,4.2-1.04,2.54-2.77,12.25-2.95,15.01,0,0-.85-4.15-2.01-7.44-1.07-3.03-2.61-5.71-5.2-7.68-2.86-2.18-5.27-1.61-6.09,2.15ZM460.36,47.37c.45,3.09-4.2,17.7-8.83,15.88-10.58-4.17.55-29.74,4.13-38.29,1.49-3.57,2.48-6.46,3.44-7.94.6,1.78-.2,5.97-1.33,9.16-2.77,7.77-10.55,21.61-2.81,27.85,1.44.8,1.86.61,2.64-1.34.76-1.91,1.57-3.75,2.76-5.32ZM473.2,16.5c-.32,1.48-.31,3.19-.31,3.19.67.35,2.29.81,3.83,1.74,1.56.95,3.04,2.39,3.38,2.51.58-.22.6-.89.77-1.42,2.48,3.82,4.01,8.56,4.89,13.01,0,0,.35,2.53.9,2.32,1.9-.62,3.67-16.36,4.88-19.43,1.6-4.08,4.14-6.9,7.45-1.1l1.94-4.84s-.87-1.67-2.5-2.78c-3.84-2.62-6.01,1.37-7.52,4.58-1.13,2.77-3.02,13.36-3.22,16.36,0,0-.92-4.52-2.19-8.11-1.16-3.3-2.85-6.23-5.67-8.37-3.12-2.37-5.74-1.76-6.64,2.35ZM516.45,19.13c-.26-1.8,2.45-10.33,5.15-9.27,6.18,2.43-.32,17.35-2.41,22.34-.87,2.08-1.45,3.77-2.01,4.63-.35-1.04.12-3.49.78-5.35,1.61-4.54,6.15-12.61,1.64-16.25-.84-.47-1.09-.36-1.54.78-.44,1.11-.92,2.19-1.61,3.1ZM368.17,15.31c-.32,1.48-.31,3.19-.31,3.19.67.35,2.29.81,3.83,1.74,1.56.95,3.04,2.39,3.38,2.51.58-.22.6-.89.77-1.42,2.48,3.82,4.01,8.56,4.89,13.01,0,0,.35,2.53.9,2.32,1.9-.62,3.67-16.36,4.88-19.43,1.6-4.08,4.14-6.9,7.45-1.1l1.94-4.84s-.87-1.67-2.5-2.78c-3.84-2.62-6.01,1.37-7.52,4.58-1.13,2.77-3.02,13.36-3.22,16.36,0,0-.92-4.52-2.19-8.11-1.16-3.3-2.85-6.23-5.67-8.37-3.12-2.37-5.74-1.76-6.64,2.35ZM739.03,16.13c-.25,1.13-.24,2.44-.24,2.44.52.27,1.75.62,2.93,1.33,1.19.73,2.33,1.83,2.59,1.92.44-.17.46-.68.59-1.08,1.9,2.93,3.07,6.56,3.75,9.96,0,0,.27,1.94.69,1.78,1.45-.48,2.81-12.52,3.73-14.88,1.22-3.12,3.17-5.29,5.71-.85l1.48-3.71s-.67-1.28-1.91-2.13c-2.94-2-4.6,1.05-5.76,3.51-.86,2.12-2.31,10.23-2.47,12.53,0,0-.71-3.46-1.68-6.21-.89-2.53-2.18-4.77-4.34-6.41-2.39-1.82-4.4-1.35-5.09,1.8ZM806.84,47.7c.26,1.78-2.42,10.18-5.08,9.14-6.09-2.4.32-17.11,2.38-22.03.86-2.05,1.43-3.72,1.98-4.57.35,1.03-.12,3.44-.77,5.27-1.59,4.47-6.07,12.43-1.62,16.03.83.46,1.07.35,1.52-.77.44-1.1.9-2.16,1.59-3.06ZM870.87,16.34c-.22-1.52,2.07-8.7,4.34-7.81,5.2,2.05-.27,14.62-2.03,18.83-.73,1.75-1.22,3.18-1.69,3.9-.3-.88.1-2.94.66-4.5,1.36-3.82,5.19-10.62,1.38-13.69-.71-.39-.91-.3-1.3.66-.37.94-.77,1.84-1.36,2.62ZM961.84,40.19c.34,2.37-3.23,13.61-6.79,12.21-8.14-3.2.42-22.86,3.17-29.44,1.15-2.74,1.91-4.97,2.65-6.1.46,1.37-.15,4.59-1.03,7.04-2.13,5.98-8.11,16.61-2.16,21.41,1.11.62,1.43.47,2.03-1.03.58-1.47,1.21-2.88,2.12-4.09ZM673.07,70.28c.52,3.59-4.89,20.61-10.28,18.49-12.33-4.85.64-34.63,4.81-44.59,1.74-4.16,2.89-7.52,4.01-9.25.7,2.08-.23,6.95-1.55,10.67-3.22,9.05-12.28,25.16-3.28,32.43,1.68.93,2.17.72,3.07-1.56.88-2.22,1.83-4.37,3.22-6.19ZM594.23,13.65c-.3,1.35-.29,2.93-.29,2.93.62.32,2.1.74,3.51,1.6,1.43.87,2.79,2.19,3.1,2.3.53-.2.55-.81.71-1.3,2.28,3.5,3.68,7.85,4.49,11.93,0,0,.32,2.32.83,2.13,1.74-.57,3.37-15,4.47-17.82,1.46-3.74,3.8-6.33,6.84-1.01l1.78-4.44s-.8-1.53-2.29-2.55c-3.52-2.4-5.51,1.26-6.9,4.2-1.04,2.54-2.77,12.25-2.95,15.01,0,0-.85-4.15-2.01-7.44-1.07-3.03-2.61-5.71-5.2-7.68-2.86-2.18-5.27-1.61-6.09,2.15ZM625.64,68.77c.26,1.78-2.42,10.18-5.08,9.14-6.09-2.4.32-17.11,2.38-22.03.86-2.05,1.43-3.72,1.98-4.57.35,1.03-.12,3.44-.77,5.27-1.59,4.47-6.07,12.43-1.62,16.03.83.46,1.07.35,1.52-.77.44-1.1.9-2.16,1.59-3.06ZM290.5,51.53s-3.83-2.68-5.37-4.25c-1.36-1.39-1.63-3.11-1.63-3.11,0,0,3.43-2.05,5.43-.59,3.59,2.85,1.58,7.96,1.58,7.95ZM292.41,60.8c-1.07-1.2-3.21-3.08-3.21-3.08-7.66,12.92-27.98,25.8-41.68,31.67,0,0-4.88,1.57-4.52.76.41-.92,6.33-3.88,6.33-3.88,13.66-8.1,27.45-17.93,38.46-29.43-3.01-1.9-8.36-5.65-7.31-9.68.32-1.22.83-2.77,1.8-4.23,2.29-3.43,6.16-6.52,9.18-4.84,5,3.04,2.35,10.45.78,14.85,0,0,2.87,1.57,3.4,3.74.46,1.9-2.3,5.85-2.3,5.85,0,0-.59-1.34-.94-1.73ZM194.08,16.49c-.32,1.48-.31,3.19-.31,3.19.67.35,2.29.81,3.83,1.74,1.56.95,3.04,2.39,3.38,2.51.58-.22.6-.89.77-1.42,2.48,3.82,4.01,8.56,4.89,13.01,0,0,.35,2.53.9,2.32,1.9-.62,3.67-16.36,4.88-19.43,1.6-4.08,4.14-6.9,7.45-1.1l1.94-4.84s-.87-1.67-2.5-2.78c-3.84-2.62-6.01,1.37-7.52,4.58-1.13,2.77-3.02,13.36-3.22,16.36,0,0-.92-4.52-2.19-8.11-1.16-3.3-2.85-6.23-5.67-8.37-3.12-2.37-5.74-1.76-6.64,2.35ZM51.99,38.31c.46,3.2-4.35,18.33-9.14,16.45-10.97-4.32.57-30.8,4.28-39.66,1.55-3.7,2.57-6.69,3.57-8.22.62,1.85-.21,6.19-1.38,9.49-2.87,8.05-10.92,22.38-2.92,28.85,1.49.83,1.93.64,2.73-1.39.79-1.97,1.63-3.89,2.86-5.51ZM62.53,16.49c-.32,1.48-.31,3.19-.31,3.19.67.35,2.29.81,3.83,1.74,1.56.95,3.04,2.39,3.38,2.51.58-.22.6-.89.77-1.42,2.48,3.82,4.01,8.56,4.89,13.01,0,0,.35,2.53.9,2.32,1.9-.62,3.67-16.36,4.88-19.43,1.6-4.08,4.14-6.9,7.45-1.1l1.94-4.84s-.87-1.67-2.5-2.78c-3.84-2.62-6.01,1.37-7.52,4.58-1.13,2.77-3.02,13.36-3.22,16.36,0,0-.92-4.52-2.19-8.11-1.16-3.3-2.85-6.23-5.67-8.37-3.12-2.37-5.74-1.76-6.64,2.35ZM108.23,14.68c-.19-1.33,1.82-7.65,3.82-6.86,4.58,1.8-.24,12.85-1.78,16.55-.65,1.54-1.07,2.79-1.49,3.43-.26-.77.09-2.58.58-3.96,1.2-3.36,4.56-9.34,1.22-12.04-.62-.35-.8-.27-1.14.58-.33.82-.68,1.62-1.19,2.3ZM25.98,157.83c6.97-2.28,15.62-1.35,22.61.38-2.97,2.54-20.43,11.94-24.4,14.76,5.04-.78,18.08-4.41,20.82-5.72,3.45-2.85,8.04-10.26,10.13-14.29,1.38-2.65,2.12-3.53-1.02-5.03-3.98-1.91-18.57-3.43-22.1-1.6-1.63.84-5.2,9.57-6.05,11.51ZM26.21,102.76c-.29,1.33-.28,2.88-.28,2.88.61.32,2.06.73,3.45,1.57,1.41.86,2.74,2.15,3.05,2.26.52-.2.54-.8.7-1.28,2.23,3.44,3.61,7.71,4.41,11.72,0,0,.32,2.28.81,2.09,1.71-.56,3.31-14.73,4.39-17.5,1.44-3.67,3.73-6.22,6.72-1l1.75-4.36s-.79-1.5-2.25-2.5c-3.46-2.36-5.41,1.23-6.78,4.13-1.02,2.5-2.72,12.03-2.9,14.74,0,0-.83-4.07-1.97-7.31-1.05-2.97-2.57-5.61-5.11-7.54-2.81-2.14-5.17-1.58-5.98,2.11ZM919.26,131.28c.34,2.37-3.23,13.61-6.79,12.21-8.14-3.2.42-22.86,3.17-29.44,1.15-2.74,1.91-4.97,2.65-6.1.46,1.37-.15,4.59-1.03,7.04-2.13,5.98-8.11,16.61-2.16,21.41,1.11.62,1.43.47,2.03-1.03.58-1.47,1.21-2.88,2.12-4.09ZM932.93,185.53c-.22-1.52,2.07-8.7,4.34-7.81,5.2,2.05-.27,14.62-2.03,18.83-.73,1.75-1.22,3.18-1.69,3.9-.3-.88.1-2.94.66-4.5,1.36-3.82,5.19-10.62,1.38-13.69-.71-.39-.91-.3-1.3.66-.37.94-.77,1.84-1.36,2.62ZM337.16,31.13c.3,2.06-2.81,11.83-5.9,10.61-7.08-2.79.37-19.88,2.76-25.6,1-2.39,1.66-4.32,2.3-5.31.4,1.19-.13,3.99-.89,6.12-1.85,5.2-7.05,14.44-1.88,18.62.96.54,1.24.41,1.76-.9.51-1.27,1.05-2.51,1.85-3.55ZM512.59,86.08c.25,1.75-2.38,10.01-4.99,8.98-5.99-2.36.31-16.82,2.33-21.65.84-2.02,1.4-3.65,1.95-4.49.34,1.01-.11,3.38-.75,5.18-1.56,4.4-5.96,12.22-1.59,15.75.81.45,1.05.35,1.49-.76.43-1.08.89-2.12,1.56-3.01ZM267.59,52.74c.25,1.75-2.38,10.01-4.99,8.98-5.99-2.36.31-16.82,2.33-21.65.84-2.02,1.4-3.65,1.95-4.49.34,1.01-.11,3.38-.75,5.18-1.56,4.4-5.96,12.22-1.59,15.75.81.45,1.05.35,1.49-.76.43-1.08.89-2.12,1.56-3.01ZM897.31,20.62c.19,1.28-1.75,7.37-3.67,6.61-4.41-1.74.23-12.38,1.72-15.94.62-1.49,1.03-2.69,1.43-3.31.25.74-.08,2.49-.56,3.81-1.15,3.24-4.39,9-1.17,11.59.6.33.77.26,1.1-.56.32-.79.65-1.56,1.15-2.21ZM967.61,88.93c-.22-1.52,2.07-8.7,4.34-7.81,5.2,2.05-.27,14.62-2.03,18.83-.73,1.75-1.22,3.18-1.69,3.9-.3-.88.1-2.94.66-4.5,1.36-3.82,5.19-10.62,1.38-13.69-.71-.39-.91-.3-1.3.66-.37.94-.77,1.84-1.36,2.62ZM295.26,18.96c.17,1.14-1.55,6.55-3.27,5.88-3.92-1.54.2-11.01,1.53-14.17.55-1.32.92-2.39,1.27-2.94.22.66-.07,2.21-.49,3.39-1.02,2.88-3.9,8-1.04,10.31.53.3.69.23.98-.5.28-.71.58-1.39,1.02-1.97ZM461.44,182.27c-6.22,1.74-31.76,15.74-35.5,19.27-.11-.3,1.03-4.06,1.23-4.39,3.91-3.81,31.82-18.42,35.65-18.54-1.03,2.74-1.18,3.29-1.39,3.66ZM388.11,73.65c.26,1.8-2.45,10.33-5.15,9.27-6.18-2.43.32-17.35,2.41-22.34.87-2.08,1.45-3.77,2.01-4.63.35,1.04-.12,3.49-.78,5.35-1.61,4.54-6.15,12.61-1.64,16.25.84.47,1.09.36,1.54-.78.44-1.11.92-2.19,1.61-3.1ZM637.54,180.17c-6.62,1.86-33.81,16.76-37.79,20.52-.11-.32,1.1-5.21,1.31-5.56,4.16-4.06,33.87-19.6,37.95-19.74-1.1,2.92-1.26,4.4-1.48,4.79ZM352.53,36.55c-.16.51.19,3.83.74,8.23,1.22,9.8,2.9,27.56,4.9,46.77,3.3,31.62,8.21,65.38-2.27,77.86.04-24.71-2.86-49.47-5.39-74.2-2.51-24.47-4.63-48.91-6.67-73.24-.07-.84-1-1.91-1.51-2.54.37-1.52,3.86-9.8,4.44-10.87,2.81,7.02,14.56,31.03,13.16,33.95-.94,1.96-6.68-5.28-7.39-5.97ZM711.04,171.19c-10.88-.61-44.54-5.5-51.89-4.13-.49.1-.97.27-1.47.33-.85.09-1.38-.09-1.55-.54-.11-.27-.08-.64.09-1.11.29-.81.69-1.58,1.05-2.37.83-1.78,1.65-3.57,2.49-5.34.61-1.28,1.64-1.97,3.17-2.4,7.18-2.01,26.16-3.99,31.45-5.89-.03-1.82-.15-4.27-.27-6.38-.98-17.32-2.98-33.58-4.78-51.22-2.5-24.46-4.64-46.23-6.67-70.56-.07-.83-1-1.91-1.51-2.54.37-1.52,3.86-9.8,4.44-10.87,2.81,7.02,14.56,31.03,13.16,33.95-.94,1.96-6.68-5.28-7.39-5.97-.16.51.19,3.84.74,8.23,1.22,9.8,2.9,24.88,4.9,44.1,1.68,16.09,3.2,30.53,3.2,44.87,0,3.49-.23,7.31-.71,11.13-.43,3.49-1.49,10.23-2.98,13.22-.42.74-.19,1.11.78,1.26,3.83.59,7.67,1.16,11.54,1.49,6.15.52,12.44.97,18.76,1.31-.48-22.16-3.04-44.36-5.32-66.53-2.51-24.47-4.63-48.91-6.67-73.24-.07-.84-1-1.91-1.51-2.54.37-1.52,3.86-9.8,4.44-10.87,2.81,7.02,14.56,31.03,13.16,33.95-.94,1.96-6.68-5.28-7.39-5.97-.16.51.19,3.83.74,8.23,1.22,9.8,2.9,27.56,4.9,46.77,2.78,26.59,6.69,54.7,1.63,70.39,7.84.35,15.7.5,23.37.35.34,0,.68-.02,1.01.02.48.06.74.37.76.79.12,1.93-3.15,7.9-4.18,9.89-.28.54-.71.97-1.36.82-14.7-3.38-28.33,1.98-41.84,9.35-19.16,10.46-54.84,34.72-64.71.76-3.89-13.39-4.58-33.34-5.35-47.32-.62-11.23-1.04-22.46-1.54-32.86-1.52-31.66-3.79-69.44-8.5-77.27l3.41-12.11c.33-.61.76.14,1.17,1.28,7.99,22.53,8.62,49.6,9.87,73.23.79,14.83,1.27,30.4,2.08,45.78.62,11.84.94,30.96,4.58,42.06,9.17,27.91,45.08,3.27,60.74-5.52ZM547.87,158.85c-1.43,7.47-1.01,16.85,3.57,22.56,16.32,20.35,59.71-11.84,69.57-25.92.03-.31-.05-.64-.24-1.01-3.36-6.07-7.07-13.11-9.71-19.75-.87-2.2-3.58-11.79-4.33-12.71l-2.01-1.87,3.9-12.22h.34s.85,1.02.85,1.02l10.01,13.4s2.37,3.27,2.37,4.24c0,1.2-3.97-.99-5.09-1.02.4,2.87,2.6,6.49,4.61,10.08,5.31,9.46,4.81,20.12.64,29.96-.95,2.23-2.22,4.31-4.02,6.26-11.07,11.93-35.28,26.67-48.49,28.86-11.09,2.43-18.46-3.35-18.46-3.35,0,0-5.38-4.09-7.51-11.01-2.57-8.35-1.01-18.64,1.2-26.31-21.14,9.38-51.77,23.12-52.33-2.39-1.39-1.03-3.88,5.71-9.29,10.88-7.43,7.09-18.22,7.52-25.99.53-3.66-3.29-6.33-8.12-8.31-13-.06-.14-.11-.29-.18-.42-1.01-1.96-1.27-2.61-1.9-2.7-3.69-.52-8.34,2.9-11.96,6.95-3.5,3.92-5.43,8.33-6.83,12.75-1.87,5.88-2.82,11.77-5.35,16.51-5.04,9.45-13.61,7.25-19.24-1.44-3.89-6-6.2-20.65-5.27-27.92.04-.34.1-.7.16-1.07-18.26,13.15-47.05,29.33-55.9,30.64-2.51.37-32.95,8.14-46.07,11.18-13.13,3.04-3.99-1.48,14.86-8.61,12.34-4.66,23.33-9.52,33.75-14.38,14.94-6.96,59.9-32.41,70.12-44.74-3.43-12.56-18.26-8.7-28.31-10.42-5.99-1.02-9.51-6.35-9.37-12.29.12-5.26,2.26-10.86,6.08-14.93,7.7-8.21,15.8-5.62,23.18,2.29,7.91,8.47,12.48,22.58,11.07,35.16-.55,4.92-2.09,8.39-4.25,12.42-1.5,2.8-6.31,7.09-12.8,11.93l-.04.43c-.32,3.49-.05,8.09.96,12.52,1.28,5.66,5.53,15.74,12.68,15.37,5.59-.29,8.32-9.09,9.78-14.69,3.23-12.43,7.55-22.2,20.18-27.93,1.17-.53,2.48-.82,3.75-1.06,1.45-.27,2.09.12,2.76,1.46,2.41,4.84,3.44,8.41,7.08,12.95,3.38,4.21,9.79,6.09,14.56,5.93,5.13-.17,10.42-2.7,14.48-7.21.38-.41,8.02-11.91,8.53-8.27.06.46.04.94,0,1.4-1.51,23.63,44.4,3.89,52.68.36,1.58-.67,3.14-1.38,4.89-2.11-1.46-.29-2.73-.57-3.98-.94-3.04-.89-18.02-5.12-20.95-5.35-.15-.01-2.51-.39-2.65-.4-.96-.05-1.16.82-2.04,1.27-1.99,1.01-18.36-1.19-23.15-.7-.91.09-1.89.16-2.62-.64-.63-.68.63-4.63.96-5.58.61-1.74,1.09-3.54,1.94-5.19.94-1.82,21.64-3.36,25.06-2.04,5.21,2,13.74,3.85,19.51,5.57,7.03,2.1,14.36,3.99,21.81,5.41-1.53-12.98-4.79-30.5-7.42-39.65-1.31-4.55-2.69-7.55-1.44-12.29.34-1.31.93-2.55,1.66-3.64,1.29-1.94,3.07-3.03,5.14-3.67.62-.19,1.27-.23,1.85-.58-.18-.35-.51-.44-.77-.63-1.96-1.45-3.46-.62-4.39,1.29-.13.27-.22.56-.34.83-.1.22-.22.44-.38.78-.09-.28-.17-.41-.15-.5.49-2.19.82-4.44,2.09-6.34.6-.89,1.29-1.37,2.01-1.55-.07-.35-.1-.6-.1-.6-.96-4.81-2.61-9.95-5.3-14.08-.19.58-.21,1.29-.84,1.53-.37-.13-1.97-1.69-3.66-2.71-1.67-1.01-3.42-1.5-4.15-1.89,0,0-.01-1.86.34-3.45.98-4.44,3.81-5.11,7.19-2.54,3.05,2.32,4.87,5.49,6.13,9.06,1.37,3.89,2.37,8.78,2.37,8.78.22-3.25,2.26-14.71,3.49-17.71,1.64-3.48,3.99-7.79,8.14-4.96,1.75,1.2,2.7,3.01,2.7,3.01l-2.1,5.24c-3.58-6.28-6.34-3.22-8.07,1.2-1.07,2.73-2.56,14.73-4.2,19.28,2.98,1.07,5.94,5.39,6.16,6.34.11.51-1.12,4.09-1.5,4.37-.11.08-2.07-.49-6.03.26-2.15.37-4.07,1.31-5.85,2.64-.14.1-.26.21-.27.34,1.63,6.4,3.72,12.84,5.24,19.36,2.26,9.69,3.74,19.58,4.37,29.81.07,1.09.1,2.1.09,3.04,9.14,1.63,18.42,2.52,27.49,2.18.87.16,1.2.59,1.03,1.45-.5,2.59-2.54,9.3-3.14,11.84-.08.05-18.51-2.08-33.09.35-3.01.5-7.86,2.53-13.61,5.07Z"/>
  <rect class="st1" x="1024.03" y="6.64" width="10.24" height="244.77" rx="3.56" ry="3.56"/>
</svg>